<svg xmlns="http://www.w3.org/2000/svg" xmlns:xlink="http://www.w3.org/1999/xlink" width="160" zoomAndPan="magnify" viewBox="0 0 120 30.000001" height="40" preserveAspectRatio="xMidYMid meet" version="1.0"><defs><g/></defs><g fill="#ffffff" fill-opacity="1"><g transform="translate(3.244954, 27.961676)"><g><path d="M 17.21875 -22.734375 L 17.21875 -17.703125 L 8.125 -17.703125 L 8.125 -13.703125 L 14.828125 -13.703125 L 14.828125 -8.90625 L 8.125 -8.90625 L 8.125 0 L 1.8125 0 L 1.8125 -22.734375 Z M 17.21875 -22.734375 "/></g></g></g><g fill="#ffffff" fill-opacity="1"><g transform="translate(22.113075, 27.961676)"><g><path d="M 5 -19.765625 C 3.882812 -19.765625 2.988281 -20.070312 2.3125 -20.6875 C 1.632812 -21.300781 1.296875 -22.070312 1.296875 -23 C 1.296875 -23.9375 1.632812 -24.71875 2.3125 -25.34375 C 2.988281 -25.96875 3.882812 -26.28125 5 -26.28125 C 6.09375 -26.28125 6.976562 -25.96875 7.65625 -25.34375 C 8.332031 -24.71875 8.671875 -23.9375 8.671875 -23 C 8.671875 -22.070312 8.332031 -21.300781 7.65625 -20.6875 C 6.976562 -20.070312 6.09375 -19.765625 5 -19.765625 Z M 8.125 -18.09375 L 8.125 0 L 1.8125 0 L 1.8125 -18.09375 Z M 8.125 -18.09375 "/></g></g></g><g fill="#ffffff" fill-opacity="1"><g transform="translate(32.821199, 27.961676)"><g><path d="M 12.484375 -5.390625 L 12.484375 0 L 9.734375 0 C 5.117188 0 2.8125 -2.289062 2.8125 -6.875 L 2.8125 -12.828125 L 0.578125 -12.828125 L 0.578125 -18.09375 L 2.8125 -18.09375 L 2.8125 -22.484375 L 9.15625 -22.484375 L 9.15625 -18.09375 L 12.453125 -18.09375 L 12.453125 -12.828125 L 9.15625 -12.828125 L 9.15625 -6.765625 C 9.15625 -6.273438 9.269531 -5.921875 9.5 -5.703125 C 9.726562 -5.492188 10.109375 -5.390625 10.640625 -5.390625 Z M 12.484375 -5.390625 "/></g></g></g><g fill="#ffffff" fill-opacity="1"><g transform="translate(47.173903, 27.961676)"><g><path d="M 22.15625 -22.734375 L 22.15625 0 L 15.828125 0 L 15.828125 -9.125 L 8.125 -9.125 L 8.125 0 L 1.8125 0 L 1.8125 -22.734375 L 8.125 -22.734375 L 8.125 -14.1875 L 15.828125 -14.1875 L 15.828125 -22.734375 Z M 22.15625 -22.734375 "/></g></g></g><g fill="#ffffff" fill-opacity="1"><g transform="translate(71.912068, 27.961676)"><g><path d="M 20.3125 -18.09375 L 20.3125 0 L 13.96875 0 L 13.96875 -2.578125 C 13.425781 -1.765625 12.679688 -1.101562 11.734375 -0.59375 C 10.785156 -0.09375 9.703125 0.15625 8.484375 0.15625 C 6.378906 0.15625 4.71875 -0.535156 3.5 -1.921875 C 2.28125 -3.304688 1.671875 -5.191406 1.671875 -7.578125 L 1.671875 -18.09375 L 7.96875 -18.09375 L 7.96875 -8.390625 C 7.96875 -7.359375 8.238281 -6.546875 8.78125 -5.953125 C 9.332031 -5.359375 10.0625 -5.0625 10.96875 -5.0625 C 11.894531 -5.0625 12.625 -5.359375 13.15625 -5.953125 C 13.695312 -6.546875 13.96875 -7.359375 13.96875 -8.390625 L 13.96875 -18.09375 Z M 20.3125 -18.09375 "/></g></g></g><g fill="#ffffff" fill-opacity="1"><g transform="translate(94.811817, 27.961676)"><g><path d="M 8.125 -15.578125 C 8.625 -16.429688 9.320312 -17.097656 10.21875 -17.578125 C 11.125 -18.066406 12.191406 -18.3125 13.421875 -18.3125 C 14.859375 -18.3125 16.160156 -17.9375 17.328125 -17.1875 C 18.503906 -16.4375 19.429688 -15.363281 20.109375 -13.96875 C 20.785156 -12.570312 21.125 -10.9375 21.125 -9.0625 C 21.125 -7.1875 20.785156 -5.546875 20.109375 -4.140625 C 19.429688 -2.734375 18.503906 -1.65625 17.328125 -0.90625 C 16.160156 -0.15625 14.859375 0.21875 13.421875 0.21875 C 12.191406 0.21875 11.125 -0.0195312 10.21875 -0.5 C 9.320312 -0.976562 8.625 -1.648438 8.125 -2.515625 L 8.125 0 L 1.8125 0 L 1.8125 -23.859375 L 8.125 -23.859375 Z M 14.703125 -9.0625 C 14.703125 -10.25 14.382812 -11.164062 13.75 -11.8125 C 13.113281 -12.46875 12.335938 -12.796875 11.421875 -12.796875 C 10.492188 -12.796875 9.710938 -12.460938 9.078125 -11.796875 C 8.441406 -11.128906 8.125 -10.21875 8.125 -9.0625 C 8.125 -7.875 8.441406 -6.945312 9.078125 -6.28125 C 9.710938 -5.613281 10.492188 -5.28125 11.421875 -5.28125 C 12.335938 -5.28125 13.113281 -5.617188 13.75 -6.296875 C 14.382812 -6.984375 14.703125 -7.90625 14.703125 -9.0625 Z M 14.703125 -9.0625 "/></g></g></g></svg>