<svg width="550" height="624.26423" xmlns="http://www.w3.org/2000/svg" data-name="Layer 1">
 <g>
  <title>Layer 1</title>
  <rect transform="rotate(-57.14 -594.352 609.048)" x="56.5638" y="1010.13145" width="7.81019" height="67.36288" fill="#2f2e41" id="svg_1"/>
  <ellipse cx="404.58643" cy="995.41289" rx="23.43057" ry="5.85766" fill="#2f2e41" id="svg_3"/>
  <ellipse cx="290.20584" cy="607.06899" rx="225.44868" ry="17.19524" fill="#e6e6e6" id="svg_4"/>
  <path d="m475.65646,524.6167a294.26751,294.26751 0 0 1 -13.746,81.3449c-0.19151,0.61112 -0.39221,1.21311 -0.59286,1.82428l-51.299,0c0.05473,-0.54732 0.10951,-1.15844 0.16423,-1.82428c3.42054,-39.32253 23.14106,-278.65052 -0.43786,-319.57842c2.06149,3.32021 69.88842,113.28815 65.91149,238.23352z" fill="#e6e6e6" id="svg_6"/>
  <path d="m471.80726,605.9616c-0.42873,0.61112 -0.87567,1.22224 -1.33174,1.82428l-38.48333,0c0.29189,-0.51993 0.62938,-1.131 1.02159,-1.82428c6.35767,-11.47478 25.17512,-45.78046 42.64268,-81.3449c18.77192,-38.21881 35.99318,-77.88789 34.54285,-92.245c0.44695,3.23808 13.43584,101.95016 -38.39205,173.5899z" fill="#e6e6e6" id="svg_7"/>
  <path d="m112.16731,565.57051a149.36551,149.36551 0 0 0 6.97725,41.28939c0.09721,0.3102 0.19908,0.61576 0.30093,0.926l26.03855,0c-0.02778,-0.27781 -0.05559,-0.588 -0.08337,-0.926c-1.73621,-19.95949 -11.746,-141.43862 0.22226,-162.213c-1.04636,1.68531 -35.47425,57.50331 -33.45562,120.92361z" fill="#e6e6e6" id="svg_8"/>
  <path d="m114.12111,606.8599c0.21762,0.3102 0.44448,0.62039 0.676,0.926l19.53352,0c-0.14816,-0.26391 -0.31947,-0.5741 -0.51855,-0.926c-3.227,-5.82441 -12.77849,-23.23743 -21.64475,-41.28939c-9.52833,-19.39926 -18.26957,-39.53467 -17.53341,-46.82211c-0.22688,1.6436 -6.81984,51.7483 19.48719,88.1115z" fill="#e6e6e6" id="svg_9"/>
  <path d="m145.40111,261.93945s-43.50121,42.63117 -25.23072,47.85131s39.15108,-39.15107 39.15108,-39.15107l-13.92036,-8.70024z" fill="#a0616a" id="svg_10"/>
  <polygon points="188.9019775390625,405.4930114746094 183.6820068359375,429.85400390625 222.8330078125,431.593994140625 216.74298095703125,405.4930114746094 188.9019775390625,405.4930114746094 " fill="#a0616a" id="svg_11"/>
  <polygon points="312.44598388671875,556.0070190429688 307.22601318359375,580.3679809570312 346.37701416015625,582.1079711914062 340.2860107421875,556.0070190429688 312.44598388671875,556.0070190429688 " fill="#a0616a" id="svg_12"/>
  <path d="m243.71379,242.79892l3.48011,13.92038s-96.57264,-19.14055 -91.3525,29.5808s27.84077,95.70265 27.84077,95.70265s-1.74,15.66045 1.74,18.27049s0,11.31031 0,11.31031s32.1909,4.35013 33.06092,-3.48006a54.56676,54.56676 0 0 0 -0.87,-15.66044s1.74,0 0,-8.70024s-8.76889,-78.86547 -13.989,-88.43575c0,0 46.17994,35.36427 70.54059,31.01411c0,0 -3.48011,34.801 10.44029,80.91225s13.92029,51.33141 13.92029,51.33141s16.53046,87.87243 12.18033,98.31272l-0.87,4.35013l32.19087,0s-2.61005,-46.11125 0,-52.20142s2.6101,-58.29158 -12.18032,-84.39231c-10.47395,-18.48353 -8.52313,-72.07681 -2.79394,-93.26023c4.81124,-17.78918 6.02623,-31.48065 3.20593,-49.69185c-3.016,-19.47493 -12.02222,-29.65481 -23.03257,-38.88295l-63.51177,0z" fill="#2f2e41" id="svg_13"/>
  <circle cx="269.37954" cy="80.53943" r="31.32088" fill="#a0616a" id="svg_14"/>
  <path d="m261.11431,102.72503s9.57028,27.84078 8.70026,33.06091s27.84077,-10.44029 27.84077,-10.44029s-11.31031,-27.84078 -7.8302,-35.671l-28.71083,13.05038z" fill="#a0616a" id="svg_15"/>
  <path d="m295.91526,115.7754l-30.45081,12.18034l1.74,10.44029s-2.61005,3.4801 -1.74,5.22015s-11.31031,8.70023 -9.57028,11.31031s-10.44029,13.05035 -9.57028,15.66044s-27.84076,18.27051 -12.18032,48.72135c0,0 8.1195,10.55533 7.10209,23.03778q-0.05356,0.658 -0.14186,1.32288c-1.74,13.05036 66.12182,-1.74 66.12182,-1.74l0,-14.79046s6.09017,-2.61008 5.22015,-13.92039s-6.09016,-6.09016 0,-12.18032s6.09016,-5.22015 5.22015,-10.4403c-0.34742,-2.08456 -0.41738,-9.57987 -0.37609,-17.83215a79.1676,79.1676 0 0 0 -16.15437,-48.28961l0,0l-5.2202,-8.70031z" fill="#624d4b" id="svg_16"/>
  <path d="m279.3848,138.39603l-56.55154,59.16162l-82.6523,65.25182l18.27049,14.7904l152.25423,-101.79282s13.05034,-55.68153 -31.32088,-37.41102z" fill="#624d4b" id="svg_17"/>
  <path d="m191.51237,418.54378s-6.09017,-10.44029 -10.4403,-6.96018l-30.45081,24.36066s-53.94151,15.66044 -1.74,27.84076c0,0 28.71079,4.35013 34.801,0s15.66044,-3.48011 18.27049,-1.74s35.671,-0.87 35.671,-7.8302s-18.23414,-37.37944 -18.23414,-37.37944s-10.47677,12.14865 -27.87724,1.7084z" fill="#2f2e41" id="svg_18"/>
  <path d="m315.05576,569.05793s-6.09016,-10.4403 -10.44029,-6.96018l-30.45082,24.36065s-53.9415,15.66044 -1.74,27.84077c0,0 28.71078,4.35013 34.80094,0s15.66045,-3.48012 18.27049,-1.74s35.671,-0.87 35.671,-7.8302s-18.2341,-37.37944 -18.2341,-37.37944s-10.47672,12.14869 -27.87722,1.7084z" fill="#2f2e41" id="svg_19"/>
  <path d="m231.84395,68.11811s5.29577,-46.552 50.58886,-33.33436c0,0 32.04224,-6.51744 43.3595,33.50169l11.487,41.95714l-5.25811,-2.73243l-2.32417,5.34954l-8.39144,2.29741l-3.746,-7.0928l-1.5786,8.731l-57.95072,11.71641s19.59887,-22.39274 19.45984,-55.189l-5.77258,6.33962l-39.87358,-11.54422z" fill="#2f2e41" id="svg_20"/>
  <ellipse transform="rotate(41 102.327 277.94)" cx="102.32727" cy="277.94027" rx="5.85766" ry="23.43057" fill="#2f2e41" id="svg_40"/>
  <rect x="409.41768" y="577.76013" width="67.36288" height="7.81019" fill="#2f2e41" id="svg_42"/>
  <ellipse cx="476.78063" cy="581.66522" rx="5.85766" ry="23.43057" fill="#2f2e41" id="svg_43"/>
  <ellipse cx="409.41768" cy="581.66522" rx="5.85766" ry="23.43057" fill="#2f2e41" id="svg_44"/>
  <ellipse cx="409.41768" cy="581.66522" rx="5.85766" ry="23.43057" fill="#2f2e41" id="svg_2"/>
  <ellipse transform="rotate(35 154.327 315.94)" cx="154.32727" cy="315.94027" rx="5.85766" ry="23.43057" fill="#2f2e41" id="svg_45"/>
 </g>

</svg>